<svg width="14" height="14" viewBox="0 0 14 14" fill="none" xmlns="http://www.w3.org/2000/svg">
<g id="Icon Delete">
<g id="Icon Delete_2">
<g id="Vector">
<path d="M7 1.16699C5.42599 1.16699 4.15 2.3627 4.15 3.83767V3.97824H2.2C1.95147 3.97824 1.75 4.16703 1.75 4.39992C1.75 4.63282 1.95147 4.82161 2.2 4.82161H11.8C12.0485 4.82161 12.25 4.63282 12.25 4.39992C12.25 4.16703 12.0485 3.97824 11.8 3.97824H9.85V3.83767C9.85 2.3627 8.57401 1.16699 7 1.16699Z" fill="#444A5B"/>
<path d="M10.9103 7.64944L10.7529 8.70929C10.5818 9.86119 10.4963 10.4371 10.315 10.8997C9.9758 11.7647 9.38955 12.409 8.68981 12.6857C8.31563 12.8337 7.87708 12.8337 7 12.8337C6.12292 12.8337 5.68437 12.8337 5.31019 12.6857C4.61045 12.409 4.0242 11.7647 3.68505 10.8997C3.50369 10.4371 3.41815 9.86119 3.24708 8.7093L3.08968 7.64944C3.04123 7.32323 2.99699 7.02532 2.95763 6.75177C2.87675 6.1898 2.83632 5.90882 3.01562 5.71662C3.19492 5.52442 3.50309 5.52442 4.11942 5.52442H9.88058C10.4969 5.52442 10.8051 5.52442 10.9844 5.71662C11.1637 5.90882 11.1232 6.1898 11.0424 6.75178C11.003 7.02524 10.9587 7.32334 10.9103 7.64944Z" fill="#444A5B"/>
</g>
</g>
</g>
</svg>
